# xmcd
#
# Track frame offsets: 
#        150
#        16603
#        41143
#        59857
#        72148
#        88515
#        104247
#        118598
#        142552
#        153996
#        169238
#        184055
#        192065
#        205619
#        216389
#        226158
#        244061
#        267555
#        284380
#
# Disc length: 4032 seconds
#
# Revision: 0
# Processed by: cddbd v1.5PL3 Copyright (c) Steve Scherf et al.
# Submitted via: ExactAudioCopy v0.95a3
#
DISCID=130fbe13
DTITLE=Uncle Tupelo - Live - 19890630 - St Louis, MO [CD1 of 2)
DYEAR=1989
DGENRE=Alternative Country
TTITLE0=So Called Friend
TTITLE1=Graveyard Shift
TTITLE2=Train
TTITLE3=John Hardy  [Traditional]
TTITLE4=Factory Belt
TTITLE5=Life Worth Livin'
TTITLE6=Mr. Soul  [Neil Young]
TTITLE7=Whiskey Bottle
TTITLE8=D. Boon
TTITLE9=Outdone
TTITLE10=Weary Blues From Waiting  [Hank Williams]
TTITLE11=Little Guitars  [Van Halen]
TTITLE12=Screen Door
TTITLE13=Otherside
TTITLE14=There Was A Time (Looking For A Way Out)
TTITLE15=Willin'  [Little Feat]
TTITLE16=A Hard Rain's A-Gonna Fall  [Bob Dylan]
TTITLE17=Flatness
TTITLE18=Dead Flowers  [Rolling Stones]
EXTD=Recorded live at Cicero's - St. Luois, MO on June 30, 1989.\n\nSo
EXTD=undboard recording.
EXTT0=
EXTT1=
EXTT2=
EXTT3=
EXTT4=
EXTT5=
EXTT6=
EXTT7=
EXTT8=
EXTT9=
EXTT10=
EXTT11=
EXTT12=
EXTT13=
EXTT14=
EXTT15=
EXTT16=
EXTT17=
EXTT18=
PLAYORDER=
